<?xml version="1.0" encoding="utf-8"?>
<svg version="1.1" id="Layer_1" xmlns="http://www.w3.org/2000/svg" x="0px" y="0px" width="100%" viewBox="0 0 1024 1024" enable-background="new 0 0 1024 1024">
  <path opacity="1.000000" stroke="none" d=" M65.341827,537.425171 C56.476307,499.441772 59.152550,462.919678 76.813751,428.297333 C95.012062,392.622040 124.282906,371.779480 163.966873,365.500885 C187.848557,361.722443 211.116455,363.550232 233.440094,372.921844 C263.706635,385.627899 282.570587,408.161713 289.082367,440.462463 C290.175262,445.883636 293.218048,447.134369 297.623596,447.588501 C300.679382,447.903442 303.850830,447.177551 307.974243,448.624451 C292.670197,469.682007 277.782318,490.166962 262.204010,511.601898 C245.441254,491.650116 229.249268,472.377686 213.168808,453.238037 C214.246078,451.189423 215.735443,451.667206 216.960663,451.647644 C221.459030,451.575806 225.968811,451.791016 230.455124,451.546539 C233.283585,451.392395 237.238663,453.148987 238.646133,449.888916 C239.921021,446.935944 236.619507,444.513702 234.887634,442.190216 C209.013565,407.477417 157.894669,409.675690 133.559601,446.693878 C115.534065,474.114136 113.573227,517.118103 133.439560,545.460144 C146.566452,564.187439 164.709442,574.586487 187.584030,574.281067 C208.294632,574.004578 225.566315,565.167419 238.102966,548.266907 C240.187912,545.456238 241.841614,544.969360 245.102615,546.111938 C258.763367,550.898315 272.542755,555.345825 286.272034,559.937378 C288.448029,560.665100 290.589844,561.494995 293.117950,562.412048 C288.119873,574.353271 281.803833,584.992004 273.217499,594.251587 C254.746353,614.171021 231.564240,624.770691 205.008957,628.486633 C170.781464,633.276062 138.990845,626.747192 110.778923,606.381897 C87.168266,589.338074 72.533806,565.987671 65.341827,537.425171 z" style="fill: rgb(44, 62, 80);"/>
  <path opacity="1.000000" stroke="none" d=" M605.999878,627.355225 C588.500488,627.354431 571.501099,627.377930 554.501770,627.342529 C545.402283,627.323608 540.605774,621.684448 544.205566,613.388367 C547.567078,605.641418 549.514832,597.091370 553.833435,590.138306 C557.948975,583.512207 557.715942,578.283569 555.964844,571.384460 C553.112244,560.145386 550.667664,548.565796 551.849365,536.897705 C552.454590,530.922546 551.343811,526.229248 548.512207,521.037292 C544.364868,513.432678 545.264099,505.281952 548.983032,497.507141 C549.914917,495.558899 550.731750,493.825592 549.941345,491.395905 C544.920227,475.961517 544.451111,459.709290 541.611938,443.879517 C539.102112,429.885559 538.322327,415.842438 538.628967,401.665192 C539.030029,383.126984 550.399536,367.353455 568.006409,363.484467 C585.201172,359.705994 601.638550,361.344666 614.136047,375.933350 C621.433350,384.451721 623.779480,394.930328 624.061951,405.671783 C624.709106,430.278656 625.690735,454.973877 618.349365,478.984924 C617.523621,481.685730 616.882141,484.447083 615.961975,487.113708 C614.923157,490.124298 615.799927,491.679962 619.027832,491.603180 C632.160095,491.290649 645.346619,492.637054 658.418945,490.527405 C677.451904,487.455750 690.766052,471.097290 691.849426,451.203613 C693.048706,429.182526 679.421387,412.677856 658.506409,408.772797 C651.443237,407.454041 644.208618,408.357422 637.054321,408.280792 C633.891785,408.246918 632.653381,407.167297 632.617065,403.908691 C632.454163,389.304321 627.711121,376.529907 617.008972,366.253754 C616.670166,365.928436 616.532654,365.393494 616.306580,364.966278 C616.956055,363.178009 618.506592,363.651031 619.708923,363.671783 C636.019836,363.953278 652.378784,362.747467 668.634460,364.710175 C703.013306,368.860992 729.260376,389.841125 737.001526,424.694244 C743.358643,453.316010 738.852661,480.324127 719.794678,503.728760 C712.315247,512.914001 702.739441,519.541870 692.358276,525.065063 C690.608765,525.995850 688.844116,526.898193 686.929626,527.895386 C687.886719,532.775085 690.697266,536.595703 692.726624,540.703003 C700.695068,556.830872 708.941345,572.821167 716.980286,588.914612 C718.015442,590.986755 719.457214,592.328857 721.384949,593.454102 C727.942749,597.281921 735.005920,599.518433 742.482849,600.687256 C753.007629,602.332397 758.975220,609.095947 758.327698,618.415100 C757.970825,623.551453 754.509521,627.276001 749.380066,627.296875 C723.214905,627.402954 697.048767,627.427551 670.883667,627.316895 C664.267944,627.288940 660.490906,621.392151 662.623840,615.172424 C663.730957,611.943970 665.879089,609.390564 667.851013,606.718384 C670.683411,602.880188 671.023132,599.285278 668.573364,594.775452 C659.352417,577.800293 650.406738,560.670593 641.678406,543.436462 C639.438477,539.013733 636.884705,536.948181 631.717651,537.200073 C622.905579,537.629761 614.057495,537.329773 605.224487,537.311218 C603.237915,537.307068 601.008728,537.551819 599.914368,535.402771 C598.862732,533.337646 600.740051,532.011414 601.678040,530.542419 C610.043274,517.441956 609.963562,504.818207 601.084656,492.372284 C596.917603,486.531097 598.763367,480.169678 599.108276,474.021576 C599.591431,465.410309 600.757751,456.838745 601.541992,448.241974 C601.708069,446.420959 601.374146,444.595551 599.986694,442.764862 C596.597046,443.700500 593.095459,444.575378 589.657043,445.652222 C587.737854,446.253326 587.516724,447.862946 587.663757,449.712708 C588.589050,461.355682 588.289307,473.027832 588.277832,484.688293 C588.274536,488.015808 588.924683,490.687714 591.272705,493.260376 C600.883301,503.790161 601.792969,518.627380 591.931091,528.879395 C590.838013,530.015747 590.139648,531.192566 590.833862,532.898376 C595.551514,544.490906 593.165466,556.114929 590.905029,567.731445 C590.683105,568.871826 590.658325,570.115723 590.165100,571.127869 C585.932251,579.814087 589.545654,585.458069 596.747253,590.518616 C603.691772,595.398499 611.003296,599.000671 619.297852,600.679993 C625.250061,601.884949 630.873901,603.847412 635.275574,608.293030 C639.257751,612.315063 640.583801,617.353943 638.639771,621.487793 C636.430054,626.186462 632.389404,627.482117 627.496033,627.386719 C620.499817,627.250305 613.498840,627.353882 605.999878,627.355225 M598.882446,379.597168 C583.691223,368.760803 565.055420,373.713959 555.846008,386.404907 C545.804382,400.242645 548.784668,419.707886 562.279358,429.614136 C576.308777,439.912933 594.352173,437.221619 605.320068,423.194275 C615.764160,409.836853 613.242126,391.280273 598.882446,379.597168 M580.656067,546.613342 C580.880432,544.247559 580.180847,542.022705 579.654663,539.762451 C578.328674,534.066162 573.728088,535.755005 569.979004,535.331055 C566.317200,534.917053 565.454285,537.108887 565.003052,540.020691 C563.086121,552.389343 565.194031,564.395447 568.149963,576.338501 C568.665100,578.419617 570.119263,578.656921 571.922546,578.719788 C574.380310,578.805481 575.428772,577.577271 576.044434,575.349915 C578.566650,566.224243 579.899658,556.913269 580.656067,546.613342 M570.898682,496.404236 C561.893921,498.582458 556.145691,505.853210 557.846069,512.914001 C559.834595,521.171509 566.304443,525.852356 574.258057,524.787720 C581.168030,523.862793 586.911072,517.032959 586.609985,510.098267 C586.270142,502.270447 580.410034,496.881195 570.898682,496.404236 M681.393005,602.260010 C681.823242,603.679565 682.016296,605.232544 682.726318,606.494751 C685.276855,611.028992 689.192932,613.666748 694.468872,613.527710 C699.736572,613.388916 704.080994,609.633362 705.818970,604.520203 C707.482483,599.626160 705.204346,596.041260 701.853394,593.126160 C698.304688,590.039124 694.009155,588.791260 689.349182,590.510132 C684.298584,592.373169 681.787964,596.195496 681.393005,602.260010 M563.972229,473.452576 C563.999084,475.781525 564.003479,478.110962 564.058777,480.439240 C564.121399,483.075623 565.745483,483.732025 568.072510,483.678802 C570.385803,483.625854 572.592041,483.512726 572.601807,480.428802 C572.635376,469.776672 572.661316,459.124146 572.597961,448.472321 C572.576965,444.948151 569.636902,444.874969 567.237000,444.564972 C564.268066,444.181488 564.182495,446.419342 564.163818,448.498840 C564.091858,456.487610 564.042664,464.476593 563.972229,473.452576 M564.382507,609.114746 C570.433716,614.451050 577.871277,614.156738 582.142883,608.411926 C586.319763,602.794495 584.900818,595.289307 578.954712,591.548889 C574.975342,589.045593 568.969360,589.599792 565.576172,592.783386 C561.223083,596.867493 560.656494,602.263855 564.382507,609.114746 M658.016541,548.485413 C666.721375,550.061523 673.805359,546.084412 680.957825,542.440918 C680.553467,539.256775 678.952942,537.324646 677.709473,535.203125 C676.678345,533.443848 675.586487,532.344299 673.347778,533.246094 C666.795410,535.885437 659.986572,537.703003 652.875244,538.989807 C653.429993,542.832275 655.558594,545.367615 658.016541,548.485413 M745.601807,614.590332 C744.875732,613.406311 743.805542,612.577515 742.519775,612.209106 C734.328491,609.861877 725.888855,608.368103 718.019897,604.180786 C716.331421,608.863159 714.922913,612.769165 713.193542,617.564941 C724.188721,617.564941 734.236023,617.585815 744.282959,617.541321 C745.714539,617.534912 746.380554,616.691528 745.601807,614.590332 M621.144897,613.318420 C612.658936,610.658447 604.289001,607.669739 595.787109,603.732483 C595.406860,608.552124 593.647583,612.267822 591.797180,615.897644 C595.534119,617.888672 620.798828,618.471985 626.642334,616.834656 C625.715759,614.742859 623.562683,614.471375 621.144897,613.318420 M686.033142,568.549683 C686.971130,570.309937 688.149536,571.986023 688.800964,573.846619 C690.575073,578.913574 693.989258,580.633911 699.110352,579.535034 C698.422913,576.114624 690.095032,558.288879 688.294800,556.023193 C686.412903,553.654785 684.293274,554.135559 682.071716,555.292664 C679.657654,556.550049 680.664185,558.301270 681.500977,559.951904 C682.853760,562.620728 684.269653,565.257629 686.033142,568.549683 M669.219910,571.339111 C671.885803,576.022217 673.908691,581.100586 677.199707,585.366150 C681.992371,582.752197 682.094666,582.701111 680.208984,578.926147 C677.538696,573.580261 674.609924,568.362915 671.962769,563.006104 C670.100647,559.237732 667.895630,558.610413 664.788208,561.472046 C664.905212,562.163452 664.880981,562.700073 665.086914,563.125183 C666.315613,565.662048 667.597473,568.173218 669.219910,571.339111 z" style="fill: rgb(44, 62, 80);"/>
  <path opacity="1.000000" stroke="none" d=" M524.009216,611.058960 C527.372070,616.195435 530.527222,621.037109 533.579895,625.721436 C531.961853,627.982056 530.146240,627.276428 528.614746,627.280701 C509.781769,627.332886 490.947479,627.211304 472.116272,627.405090 C468.272675,627.444641 466.063538,626.075256 464.046326,622.935425 C452.701996,605.277649 441.341766,587.624268 429.585205,570.241211 C426.735687,566.027954 427.703888,564.202026 431.338745,561.627930 C443.224304,553.210999 453.957672,543.477966 462.822998,531.865051 C474.029633,517.185242 479.804932,500.398956 481.685486,482.130219 C483.615204,463.383667 483.642853,444.583984 483.744629,425.771545 C483.768494,421.360962 482.192841,419.401886 478.033417,418.723419 C455.033844,414.971832 433.869659,406.467010 414.357819,393.799835 C411.818756,392.151489 409.706940,392.134521 407.033051,393.768646 C387.104370,405.947845 365.815033,414.683533 342.685425,418.601868 C339.229370,419.187347 337.108734,420.311951 337.458099,424.690613 C339.034302,444.444855 337.059601,464.365479 339.498047,484.055023 C342.834076,510.992279 354.869049,533.526367 376.442627,550.283203 C382.305267,554.836914 384.733856,559.434692 384.488647,566.937927 C383.895630,585.084900 384.174011,603.266174 384.395782,621.429993 C384.452515,626.077026 382.878174,627.454224 378.334900,627.400513 C360.670868,627.191772 343.001617,627.203979 325.337250,627.398010 C320.914307,627.446594 319.585205,625.858398 319.598694,621.574829 C319.826599,549.243286 319.921936,476.911438 320.097229,404.579712 C320.125458,392.930420 320.540680,381.280823 320.470642,369.633209 C320.449036,366.044739 321.267700,364.593781 325.127014,364.604736 C364.459686,364.716583 403.841187,363.464050 443.112305,365.025757 C483.276489,366.622986 516.247192,389.156586 523.769409,433.144562 C530.393372,471.879883 519.050293,504.605499 485.643646,527.788513 C482.254120,530.140747 478.535950,532.019409 474.099518,534.630310 C490.764038,560.157104 507.282776,585.460632 524.009216,611.058960 z" style="fill: rgb(44, 62, 80);"/>
  <path opacity="1.000000" stroke="none" d=" M351.054565,447.002106 C351.068970,442.337372 351.102112,438.170929 351.092468,434.004547 C351.086212,431.288177 352.095825,429.970917 355.079895,429.456726 C374.307129,426.143951 392.366852,419.627228 408.813629,408.981384 C410.970428,407.585297 412.650604,407.848236 414.706268,409.258209 C430.341888,419.982635 447.717621,426.392029 466.307526,429.646973 C468.853394,430.092712 470.234192,431.180450 470.238617,433.833618 C470.271240,453.453552 470.895355,473.112854 466.641541,492.465210 C461.480072,515.947205 446.830048,532.736755 428.118042,546.536926 C423.440674,549.986572 418.301849,552.808228 413.396515,555.951965 C411.395081,557.234680 409.433960,557.501831 407.327515,556.191101 C385.142487,542.386047 365.742401,526.088135 356.720764,500.332092 C351.277679,484.792480 351.476410,468.616028 351.042053,452.500305 C350.997162,450.834991 351.048431,449.167114 351.054565,447.002106 M381.362427,512.916626 C382.464203,519.445862 384.858643,521.645874 391.197876,521.664307 C405.005402,521.704407 418.813263,521.706726 432.620667,521.647217 C438.416748,521.622192 441.578064,518.551025 441.624695,512.759827 C441.718445,501.115631 441.613342,489.469940 441.672577,477.825256 C441.686371,475.116577 441.170624,472.245270 438.483154,471.700043 C433.607056,470.710724 433.906830,467.533905 433.835846,463.896759 C433.720245,457.976746 434.793243,451.878540 431.720001,446.286072 C427.657379,438.893250 417.889587,433.606140 410.043182,434.612640 C398.683655,436.069763 391.899353,441.813049 389.225403,451.761566 C387.894653,456.712463 388.607513,461.678619 388.345459,466.634613 C388.250610,468.429138 388.607330,470.396271 386.089417,470.981293 C382.008545,471.929443 381.285492,474.914703 381.317383,478.594635 C381.413971,489.739746 381.353638,500.886169 381.362427,512.916626 z" style="fill: rgb(44, 62, 80);"/>
  <path opacity="1.000000" stroke="none" d=" M808.144897,577.637695 C818.649841,584.270386 822.705933,593.697571 820.088318,605.208740 C817.683655,615.783447 810.232300,621.730042 799.517578,623.757812 C788.345337,625.872070 776.558533,619.488647 772.030029,608.563110 C767.470642,597.562805 771.063110,584.721191 780.935303,578.701416 C784.563965,576.488770 785.806824,574.115601 785.742920,569.949829 C785.400085,547.629211 785.897217,525.311768 786.672729,503.002747 C786.779968,499.917847 786.190125,497.223175 784.470398,494.525452 C780.737427,488.669983 781.820312,482.306427 786.882446,477.922882 C791.998352,473.492737 799.589355,473.324951 804.818359,477.526398 C810.225159,481.870697 811.725769,488.554138 807.949280,494.387115 C805.907593,497.540497 805.289673,500.628876 805.310120,504.220734 C805.437317,526.543457 805.380859,548.866577 804.326355,571.171936 C804.188660,574.085938 804.604004,576.501770 808.144897,577.637695 M790.313782,607.449097 C794.748291,609.716553 798.938965,609.533691 802.699585,606.062500 C805.530457,603.449585 807.192017,600.348083 806.032043,596.351990 C804.608521,591.447632 800.254028,587.689697 795.596191,587.809387 C791.132507,587.924011 787.433777,589.969238 785.833130,594.279968 C783.968933,599.300537 785.179260,603.743286 790.313782,607.449097 M792.787598,485.572601 C791.910950,487.847626 792.277039,489.787201 794.477234,491.067139 C796.024719,491.967377 796.906189,490.745667 797.724060,489.740204 C798.927795,488.260437 798.818848,486.715332 797.643433,485.267853 C796.264954,483.570221 794.772278,483.149506 792.787598,485.572601 z" style="fill: rgb(44, 62, 80);"/>
  <path opacity="1.000000" stroke="none" d=" M793.436462,467.352356 C790.777893,467.924927 788.551453,468.473419 786.340576,469.018036 C784.487000,466.843445 784.923279,464.415802 785.091858,462.189209 C786.136963,448.381592 785.362305,434.554962 785.698486,420.743622 C785.779114,417.431732 784.804504,415.363678 781.907166,413.406036 C772.416809,406.993744 768.718384,397.718140 770.794373,386.565125 C772.507812,377.360077 778.278259,371.122925 787.083679,367.910736 C798.374390,363.791931 812.406311,368.720184 818.110229,378.667358 C824.798279,390.330841 822.643066,404.245697 812.160767,412.318542 C808.201904,415.367371 807.041504,418.547943 807.037231,423.219604 C807.024536,437.035736 806.606812,450.851532 806.336792,464.667267 C806.311157,465.979492 806.489441,467.340149 805.529480,468.737457 C801.756897,467.799774 797.885559,466.840424 793.436462,467.352356 M785.765381,389.386871 C784.980164,395.908478 788.553162,401.389740 794.329651,402.525208 C799.153198,403.473389 804.844727,399.817291 806.312439,394.827728 C807.822144,389.695618 804.889648,384.397675 799.276794,382.116882 C794.238159,380.069427 789.387207,382.489197 785.765381,389.386871 z" style="fill: rgb(44, 62, 80);"/>
  <path opacity="1.000000" stroke="none" d=" M876.971558,588.667053 C888.736816,588.816772 887.339844,587.360535 887.309998,598.460205 C887.276123,611.038208 889.007324,609.147766 876.471680,609.246216 C862.157288,609.358643 847.841248,609.285339 833.526001,609.251221 C827.590515,609.237122 826.715088,608.505371 828.190063,602.956238 C829.416748,598.341064 826.941345,594.071167 828.003540,588.667297 C844.053894,588.667297 860.265381,588.667297 876.971558,588.667053 z" style="fill: rgb(44, 62, 80);"/>
  <path opacity="1.000000" stroke="none" d=" M910.768555,581.657959 C920.312500,586.232727 924.562378,593.684082 922.696777,601.989563 C920.543335,611.576477 914.167725,616.354919 903.479675,616.381165 C899.370422,616.391235 895.261108,616.382812 890.642639,616.382812 C890.642639,604.321106 890.642639,592.939209 890.642639,580.833557 C897.326660,580.888245 903.849121,579.805969 910.768555,581.657959 M910.469421,599.192749 C909.470886,594.299622 907.104675,592.501953 904.262451,594.490479 C902.619751,595.639893 901.947937,597.235535 902.292297,599.210449 C902.565674,600.778625 903.391174,602.057556 904.948669,602.481628 C907.399475,603.148865 909.043213,601.891785 910.469421,599.192749 z" style="fill: rgb(44, 62, 80);"/>
  <path opacity="1.000000" stroke="none" d=" M917.838806,576.986084 C922.528259,571.764648 927.165588,566.967346 931.385742,561.827515 C933.317444,559.474731 935.080505,558.967468 937.801270,559.961792 C943.735535,562.130310 949.738647,564.109985 955.703796,566.194885 C963.401917,568.885559 963.397827,568.897339 963.928772,577.463379 C961.133484,579.292969 958.255737,577.713623 955.971375,576.731995 C945.261414,572.129578 936.596436,573.099426 930.867249,584.413757 C930.078308,585.971680 928.766357,587.160950 926.810791,585.934448 C923.850647,584.077820 920.925598,582.165039 917.993896,580.263306 C916.703918,579.426514 916.873718,578.377747 917.838806,576.986084 z" style="fill: rgb(44, 62, 80);"/>
  <path opacity="1.000000" stroke="none" d=" M958.716309,619.410278 C960.525757,618.905334 962.402832,618.012268 962.929688,619.995605 C963.623047,622.605469 963.312805,626.123108 960.966125,627.175659 C952.947815,630.771729 944.625305,633.694153 936.379456,636.768127 C935.784973,636.989746 934.648315,636.592712 934.145203,636.096558 C928.266846,630.299500 921.962769,624.903198 916.552429,618.287659 C919.301697,615.460266 922.617615,614.224670 925.448364,612.300293 C926.541016,611.557495 927.647644,611.691956 928.643860,612.575989 C928.892578,612.796631 929.224487,612.978394 929.367188,613.255676 C936.478455,627.076782 947.236511,624.045471 958.716309,619.410278 z" style="fill: rgb(44, 62, 80);"/>
  <path opacity="1.000000" stroke="none" d=" M926.608276,602.538208 C927.198853,599.135071 925.092407,596.300720 926.140442,592.931335 C935.208130,591.822876 944.225708,593.880554 953.295593,594.048889 C954.946350,594.079468 956.609375,594.708191 958.234924,594.596619 C962.558044,594.299927 963.083496,597.044006 963.264954,600.312073 C963.471130,604.024658 960.924500,604.326416 958.314148,604.261230 C949.126831,604.031860 940.102783,605.810791 930.981018,606.332458 C928.686401,606.463684 925.943848,606.801880 926.608276,602.538208 z" style="fill: rgb(44, 62, 80);"/>
  <path opacity="1.000000" stroke="none" d=" M572.622192,422.818756 C564.102722,417.957367 559.749634,410.224884 561.064209,402.742310 C562.779419,392.979248 568.357239,387.062744 577.250671,385.572845 C585.499695,384.190979 593.257812,387.535065 597.464905,394.286133 C601.866455,401.349243 601.412048,409.861450 596.268799,416.690033 C591.554382,422.949219 583.076233,425.823364 575.347229,423.767609 C574.545654,423.554413 573.766907,423.255157 572.622192,422.818756 M577.582214,395.949371 C573.150574,397.938477 570.749390,401.342194 571.498901,406.190826 C572.102905,410.098297 574.742432,412.690216 578.675903,413.528870 C582.345886,414.311371 585.651184,413.432983 587.937256,410.260529 C590.141968,407.200958 590.564819,403.779144 588.719116,400.446075 C586.473694,396.391174 582.945374,394.679962 577.582214,395.949371 z" style="fill: rgb(44, 62, 80);"/>
  <path opacity="1.000000" stroke="none" d=" M577.096191,507.127075 C578.972046,510.760895 579.084045,514.048645 575.993652,516.377319 C573.614563,518.169983 570.590149,518.187500 568.179138,516.202759 C565.217224,513.764404 564.744690,510.605560 566.939697,507.391663 C569.184998,504.104095 572.561768,503.976715 577.096191,507.127075 z" style="fill: rgb(44, 62, 80);"/>
  <path opacity="1.000000" stroke="none" d=" M689.611694,605.083618 C688.244751,601.329224 687.862122,598.068054 692.269226,596.832886 C694.674927,596.158752 696.896362,596.925964 698.144653,599.316345 C699.463135,601.841187 698.922424,604.187866 696.843384,605.997742 C694.423584,608.104309 692.021973,607.622681 689.611694,605.083618 z" style="fill: rgb(44, 62, 80);"/>
  <path opacity="1.000000" stroke="none" d=" M576.646973,605.605713 C573.857666,607.847778 571.455688,607.740967 569.299561,605.399414 C567.542542,603.491272 567.177185,601.313721 568.548218,599.007935 C569.974670,596.609009 572.256042,596.308472 574.643982,596.894958 C578.198364,597.767883 578.995483,600.905151 576.646973,605.605713 z" style="fill: rgb(44, 62, 80);"/>
  <path opacity="1.000000" stroke="none" d=" M398.645081,470.201630 C397.025574,464.842285 397.351532,459.644348 397.927887,454.574860 C398.612061,448.556305 404.361267,443.937958 410.444977,443.660248 C417.224976,443.350739 422.634705,447.058472 424.457794,453.266144 C424.691772,454.062866 424.995972,454.848572 425.135773,455.662018 C427.528473,469.584015 426.302216,471.115326 412.448151,470.990906 C407.972961,470.950745 403.461029,471.521820 398.645081,470.201630 z" style="fill: rgb(44, 62, 80);"/>
  <path opacity="1.000000" stroke="none" d=" M403.530487,490.483948 C404.600372,486.023865 407.244202,483.892853 411.409607,483.692230 C414.925049,483.522888 417.456909,485.198792 419.201965,488.153046 C421.310150,491.722168 420.382568,495.101868 417.790009,497.765015 C415.516479,500.100403 415.392059,502.128204 416.750793,504.862122 C417.603790,506.578430 418.712708,508.395905 418.046814,511.017273 C413.752014,511.655731 409.406860,511.582397 405.226776,511.047394 C404.350922,509.012207 405.328705,507.677246 405.981659,506.408813 C407.751129,502.971619 408.070648,499.925415 404.918518,496.969666 C403.252350,495.407257 403.256012,493.065674 403.530487,490.483948 z" style="fill: rgb(44, 62, 80);"/>
</svg>