<?xml version="1.0" encoding="utf-8"?>
<svg xmlns="http://www.w3.org/2000/svg" viewBox="0 0 470.509 159.337">
  <g id="Layer_1" transform="matrix(0.494396, 0, 0, 0.494396, -1.818268, -46.915308)">
    <path opacity="1.000000" stroke="none" d="M 20.655 283.648 C 11.79 245.664 14.466 209.142 32.127 174.52 C 50.325 138.845 79.596 118.002 119.28 111.724 C 143.162 107.945 166.43 109.773 188.753 119.144 C 219.02 131.851 237.884 154.384 244.396 186.685 C 245.489 192.106 248.531 193.357 252.937 193.811 C 255.993 194.126 259.164 193.4 263.288 194.847 C 247.983 215.905 233.096 236.39 217.517 257.825 C 200.755 237.873 184.563 218.6 168.482 199.461 C 169.559 197.412 171.049 197.89 172.274 197.87 C 176.772 197.798 181.282 198.014 185.768 197.769 C 188.597 197.615 192.552 199.372 193.959 196.112 C 195.234 193.159 191.933 190.736 190.201 188.413 C 164.327 153.7 113.208 155.898 88.873 192.917 C 70.847 220.337 68.886 263.341 88.753 291.683 C 101.88 310.41 120.023 320.809 142.897 320.504 C 163.608 320.227 180.88 311.39 193.416 294.49 C 195.501 291.679 197.155 291.192 200.416 292.335 C 214.077 297.121 227.856 301.568 241.585 306.16 C 243.761 306.888 245.903 307.718 248.431 308.635 C 243.433 320.576 237.117 331.215 228.531 340.474 C 210.06 360.394 186.878 370.993 160.322 374.709 C 126.095 379.499 94.304 372.97 66.092 352.605 C 42.482 335.561 27.847 312.21 20.655 283.648 Z" style="stroke-width: 1; fill: rgb(255, 255, 255);"/>
    <path opacity="1.000000" stroke="none" d="M 561.313 373.578 C 543.814 373.577 526.814 373.601 509.815 373.565 C 500.716 373.546 495.919 367.907 499.519 359.611 C 502.88 351.864 504.828 343.314 509.147 336.361 C 513.262 329.735 513.029 324.506 511.278 317.607 C 508.426 306.368 505.981 294.788 507.163 283.12 C 507.768 277.145 506.657 272.452 503.825 267.26 C 499.678 259.655 500.577 251.505 504.296 243.73 C 505.228 241.782 506.045 240.048 505.255 237.619 C 500.233 222.184 499.764 205.932 496.925 190.102 C 494.415 176.108 493.636 162.065 493.942 147.888 C 494.343 129.35 505.713 113.576 523.32 109.707 C 540.514 105.929 556.952 107.567 569.449 122.156 C 576.747 130.674 579.093 141.153 579.375 151.894 C 580.022 176.501 581.004 201.197 573.663 225.208 C 572.837 227.908 572.195 230.67 571.275 233.336 C 570.236 236.347 571.113 237.903 574.341 237.826 C 587.473 237.513 600.66 238.86 613.732 236.75 C 632.765 233.678 646.079 217.32 647.163 197.426 C 648.362 175.405 634.735 158.9 613.82 154.995 C 606.756 153.677 599.522 154.58 592.368 154.503 C 589.205 154.47 587.967 153.39 587.93 150.131 C 587.767 135.527 583.024 122.753 572.322 112.476 C 571.983 112.151 571.846 111.616 571.62 111.189 C 572.269 109.401 573.82 109.874 575.022 109.894 C 591.333 110.176 607.692 108.97 623.948 110.933 C 658.327 115.084 684.574 136.064 692.315 170.917 C 698.672 199.539 694.166 226.547 675.108 249.951 C 667.629 259.137 658.053 265.764 647.672 271.288 C 645.922 272.218 644.157 273.121 642.243 274.118 C 643.2 278.998 646.011 282.818 648.04 286.926 C 656.008 303.054 664.255 319.044 672.294 335.137 C 673.329 337.209 674.77 338.551 676.698 339.677 C 683.256 343.505 690.319 345.741 697.796 346.91 C 708.321 348.555 714.288 355.319 713.641 364.638 C 713.284 369.774 709.823 373.499 704.693 373.52 C 678.528 373.626 652.362 373.65 626.197 373.54 C 619.581 373.512 615.804 367.615 617.937 361.395 C 619.044 358.167 621.192 355.613 623.164 352.941 C 625.997 349.103 626.336 345.508 623.887 340.998 C 614.666 324.023 605.72 306.893 596.992 289.659 C 594.752 285.236 592.198 283.171 587.031 283.423 C 578.219 283.852 569.371 283.552 560.538 283.534 C 558.551 283.53 556.322 283.774 555.228 281.625 C 554.176 279.56 556.053 278.234 556.991 276.765 C 565.357 263.665 565.277 251.041 556.398 238.595 C 552.231 232.754 554.077 226.392 554.422 220.244 C 554.905 211.633 556.071 203.061 556.855 194.465 C 557.021 192.644 556.687 190.818 555.3 188.987 C 551.91 189.923 548.409 190.798 544.97 191.875 C 543.051 192.476 542.83 194.086 542.977 195.935 C 543.902 207.578 543.603 219.25 543.591 230.911 C 543.588 234.238 544.238 236.91 546.586 239.483 C 556.197 250.013 557.106 264.85 547.244 275.102 C 546.151 276.238 545.453 277.415 546.147 279.121 C 550.865 290.714 548.479 302.338 546.218 313.954 C 545.996 315.094 545.972 316.338 545.478 317.35 C 541.246 326.037 544.859 331.681 552.061 336.741 C 559.005 341.621 566.317 345.223 574.611 346.903 C 580.563 348.108 586.187 350.07 590.589 354.516 C 594.571 358.538 595.897 363.577 593.953 367.71 C 591.743 372.409 587.703 373.705 582.809 373.609 C 575.813 373.473 568.812 373.577 561.313 373.578 M 554.196 125.82 C 539.004 114.983 520.369 119.937 511.159 132.628 C 501.118 146.465 504.098 165.931 517.593 175.837 C 531.622 186.136 549.665 183.444 560.633 169.417 C 571.077 156.059 568.555 137.503 554.196 125.82 M 535.969 292.836 C 536.194 290.47 535.494 288.245 534.968 285.985 C 533.642 280.289 529.041 281.978 525.292 281.554 C 521.63 281.14 520.768 283.332 520.316 286.243 C 518.399 298.612 520.507 310.618 523.463 322.561 C 523.978 324.642 525.433 324.88 527.236 324.942 C 529.694 325.028 530.742 323.8 531.358 321.573 C 533.88 312.447 535.213 303.136 535.969 292.836 M 526.212 242.627 C 517.207 244.805 511.459 252.076 513.159 259.137 C 515.148 267.394 521.618 272.075 529.571 271.01 C 536.481 270.085 542.224 263.256 541.923 256.321 C 541.583 248.493 535.723 243.104 526.212 242.627 M 636.706 348.483 C 637.137 349.902 637.33 351.455 638.04 352.717 C 640.59 357.252 644.506 359.889 649.782 359.75 C 655.05 359.612 659.394 355.856 661.132 350.743 C 662.796 345.849 660.518 342.264 657.167 339.349 C 653.618 336.262 649.322 335.014 644.662 336.733 C 639.612 338.596 637.101 342.418 636.706 348.483 M 519.285 219.675 C 519.312 222.004 519.317 224.334 519.372 226.662 C 519.435 229.298 521.059 229.955 523.386 229.901 C 525.699 229.848 527.905 229.735 527.915 226.651 C 527.949 215.999 527.975 205.347 527.911 194.695 C 527.89 191.171 524.95 191.098 522.55 190.788 C 519.581 190.404 519.496 192.642 519.477 194.721 C 519.405 202.71 519.356 210.699 519.285 219.675 M 519.696 355.337 C 525.747 360.674 533.185 360.379 537.456 354.635 C 541.633 349.017 540.214 341.512 534.268 337.772 C 530.289 335.268 524.283 335.822 520.889 339.006 C 516.536 343.09 515.97 348.486 519.696 355.337 M 613.33 294.708 C 622.035 296.284 629.119 292.307 636.271 288.664 C 635.867 285.479 634.266 283.547 633.023 281.426 C 631.992 279.666 630.9 278.567 628.661 279.469 C 622.109 282.108 615.3 283.926 608.189 285.212 C 608.743 289.055 610.872 291.59 613.33 294.708 M 700.915 360.813 C 700.189 359.629 699.119 358.8 697.833 358.432 C 689.642 356.085 681.202 354.591 673.333 350.403 C 671.645 355.086 670.236 358.992 668.507 363.788 C 679.502 363.788 689.549 363.808 699.596 363.764 C 701.028 363.758 701.694 362.914 700.915 360.813 M 576.458 359.541 C 567.972 356.881 559.602 353.892 551.1 349.955 C 550.72 354.775 548.961 358.49 547.11 362.12 C 550.847 364.111 576.112 364.695 581.956 363.057 C 581.029 360.965 578.876 360.694 576.458 359.541 M 641.346 314.772 C 642.284 316.533 643.463 318.209 644.114 320.069 C 645.888 325.136 649.303 326.857 654.424 325.758 C 653.736 322.337 645.408 304.512 643.608 302.246 C 641.726 299.877 639.607 300.358 637.385 301.515 C 634.971 302.773 635.977 304.524 636.814 306.175 C 638.167 308.843 639.583 311.48 641.346 314.772 M 624.533 317.562 C 627.199 322.245 629.222 327.323 632.513 331.589 C 637.306 328.975 637.408 328.924 635.522 325.149 C 632.852 319.803 629.923 314.586 627.276 309.229 C 625.414 305.46 623.209 304.833 620.101 307.695 C 620.218 308.386 620.194 308.923 620.4 309.348 C 621.629 311.885 622.911 314.396 624.533 317.562 Z" style="stroke-width: 1; fill: rgb(255, 255, 255);"/>
    <path opacity="1.000000" stroke="none" d="M 479.322 357.282 C 482.685 362.418 485.84 367.26 488.893 371.944 C 487.275 374.205 485.46 373.499 483.928 373.503 C 465.095 373.556 446.261 373.434 427.43 373.628 C 423.586 373.667 421.377 372.298 419.36 369.158 C 408.015 351.5 396.655 333.847 384.898 316.464 C 382.049 312.251 383.017 310.425 386.652 307.851 C 398.538 299.434 409.271 289.701 418.136 278.088 C 429.343 263.408 435.118 246.622 436.999 228.353 C 438.928 209.606 438.956 190.807 439.058 171.994 C 439.082 167.584 437.506 165.625 433.347 164.946 C 410.347 161.194 389.183 152.69 369.671 140.022 C 367.132 138.374 365.02 138.357 362.346 139.991 C 342.418 152.17 321.128 160.906 297.999 164.824 C 294.543 165.41 292.422 166.535 292.771 170.913 C 294.348 190.667 292.373 210.588 294.811 230.278 C 298.147 257.215 310.182 279.749 331.756 296.506 C 337.619 301.06 340.047 305.657 339.802 313.161 C 339.209 331.308 339.487 349.489 339.709 367.653 C 339.766 372.3 338.191 373.677 333.648 373.623 C 315.984 373.414 298.315 373.427 280.651 373.621 C 276.228 373.669 274.898 372.081 274.912 367.797 C 275.14 295.466 275.235 223.134 275.41 150.802 C 275.439 139.153 275.854 127.503 275.784 115.856 C 275.762 112.267 276.581 110.816 280.44 110.827 C 319.773 110.939 359.154 109.687 398.426 111.248 C 438.59 112.846 471.56 135.379 479.083 179.367 C 485.707 218.103 474.364 250.828 440.957 274.011 C 437.567 276.363 433.849 278.242 429.413 280.853 C 446.077 306.38 462.596 331.683 479.322 357.282 Z" style="stroke-width: 1; fill: rgb(255, 255, 255);"/>
    <path opacity="1.000000" stroke="none" d="M 306.368 193.225 C 306.382 188.56 306.415 184.394 306.406 180.227 C 306.399 177.511 307.409 176.194 310.393 175.679 C 329.62 172.367 347.68 165.85 364.127 155.204 C 366.284 153.808 367.964 154.071 370.02 155.481 C 385.655 166.205 403.031 172.615 421.621 175.87 C 424.167 176.315 425.547 177.403 425.552 180.056 C 425.585 199.676 426.209 219.335 421.955 238.688 C 416.793 262.17 402.143 278.959 383.431 292.76 C 378.754 296.209 373.615 299.031 368.71 302.175 C 366.708 303.457 364.747 303.724 362.641 302.414 C 340.456 288.609 321.056 272.311 312.034 246.555 C 306.591 231.015 306.79 214.839 306.355 198.723 C 306.31 197.058 306.362 195.39 306.368 193.225 M 336.676 259.139 C 337.777 265.668 340.172 267.869 346.511 267.887 C 360.319 267.927 374.127 267.929 387.934 267.87 C 393.73 267.845 396.891 264.774 396.938 258.982 C 397.032 247.338 396.927 235.693 396.986 224.048 C 397 221.339 396.484 218.468 393.796 217.923 C 388.92 216.933 389.22 213.757 389.149 210.119 C 389.034 204.199 390.107 198.101 387.033 192.509 C 382.971 185.116 373.203 179.829 365.356 180.835 C 353.997 182.292 347.213 188.036 344.539 197.984 C 343.208 202.935 343.921 207.901 343.659 212.857 C 343.564 214.652 343.921 216.619 341.403 217.204 C 337.322 218.152 336.599 221.137 336.631 224.817 C 336.727 235.962 336.667 247.109 336.676 259.139 Z" style="stroke-width: 1; fill: rgb(255, 255, 255);"/>
    <path opacity="1.000000" stroke="none" d="M 763.458 323.86 C 773.963 330.493 778.019 339.92 775.402 351.431 C 772.997 362.006 765.546 367.953 754.831 369.98 C 743.659 372.095 731.872 365.711 727.343 354.786 C 722.784 343.785 726.376 330.944 736.249 324.924 C 739.877 322.711 741.12 320.338 741.056 316.172 C 740.713 293.852 741.21 271.534 741.986 249.225 C 742.093 246.14 741.503 243.446 739.784 240.748 C 736.051 234.893 737.134 228.529 742.196 224.146 C 747.312 219.715 754.903 219.548 760.132 223.749 C 765.538 228.093 767.039 234.777 763.263 240.61 C 761.221 243.763 760.603 246.852 760.623 250.443 C 760.751 272.766 760.694 295.089 759.64 317.395 C 759.502 320.309 759.917 322.724 763.458 323.86 M 745.627 353.672 C 750.062 355.939 754.252 355.756 758.013 352.285 C 760.844 349.672 762.505 346.571 761.345 342.575 C 759.922 337.67 755.567 333.912 750.909 334.032 C 746.446 334.147 742.747 336.192 741.146 340.503 C 739.282 345.523 740.493 349.966 745.627 353.672 M 748.101 231.795 C 747.224 234.07 747.59 236.01 749.79 237.29 C 751.338 238.19 752.219 236.968 753.037 235.963 C 754.241 234.483 754.132 232.938 752.957 231.49 C 751.578 229.793 750.086 229.372 748.101 231.795 Z" style="stroke-width: 1; fill: rgb(255, 255, 255);"/>
    <path opacity="1.000000" stroke="none" d="M 748.75 213.575 C 746.091 214.148 743.865 214.696 741.654 215.241 C 739.8 213.066 740.237 210.638 740.405 208.412 C 741.45 194.604 740.676 180.778 741.012 166.966 C 741.092 163.654 740.118 161.586 737.22 159.629 C 727.73 153.216 724.032 143.941 726.108 132.788 C 727.821 123.583 733.592 117.346 742.397 114.133 C 753.688 110.015 767.72 114.943 773.423 124.89 C 780.112 136.553 777.956 150.468 767.474 158.541 C 763.515 161.59 762.355 164.771 762.35 169.442 C 762.338 183.258 761.92 197.074 761.65 210.89 C 761.624 212.202 761.803 213.563 760.843 214.96 C 757.07 214.022 753.199 213.063 748.75 213.575 M 741.079 135.61 C 740.293 142.131 743.866 147.612 749.643 148.748 C 754.466 149.696 760.158 146.04 761.626 141.05 C 763.135 135.918 760.203 130.62 754.59 128.34 C 749.551 126.292 744.7 128.712 741.079 135.61 Z" style="stroke-width: 1; fill: rgb(255, 255, 255);"/>
    <path opacity="1.000000" stroke="none" d="M 832.285 334.89 C 844.05 335.039 842.653 333.583 842.623 344.683 C 842.589 357.261 844.321 355.37 831.785 355.469 C 817.471 355.581 803.155 355.508 788.839 355.474 C 782.904 355.46 782.028 354.728 783.503 349.179 C 784.73 344.564 782.255 340.294 783.317 334.89 C 799.367 334.89 815.579 334.89 832.285 334.89 Z" style="stroke-width: 1; fill: rgb(255, 255, 255);"/>
    <path opacity="1.000000" stroke="none" d="M 866.082 327.881 C 875.626 332.455 879.876 339.907 878.01 348.212 C 875.857 357.799 869.481 362.578 858.793 362.604 C 854.684 362.614 850.574 362.605 845.956 362.605 C 845.956 350.544 845.956 339.162 845.956 327.056 C 852.64 327.111 859.162 326.029 866.082 327.881 M 865.783 345.415 C 864.784 340.522 862.418 338.725 859.576 340.713 C 857.933 341.863 857.261 343.458 857.606 345.433 C 857.879 347.001 858.704 348.28 860.262 348.704 C 862.713 349.371 864.356 348.114 865.783 345.415 Z" style="stroke-width: 1; fill: rgb(255, 255, 255);"/>
    <path opacity="1.000000" stroke="none" d="M 873.152 323.209 C 877.842 317.987 882.479 313.19 886.699 308.05 C 888.631 305.697 890.394 305.19 893.115 306.184 C 899.049 308.353 905.052 310.333 911.017 312.418 C 918.715 315.108 918.711 315.12 919.242 323.686 C 916.447 325.516 913.569 323.936 911.285 322.955 C 900.575 318.352 891.91 319.322 886.181 330.636 C 885.392 332.194 884.08 333.384 882.124 332.157 C 879.164 330.3 876.239 328.388 873.307 326.486 C 872.017 325.649 872.187 324.6 873.152 323.209 Z" style="stroke-width: 1; fill: rgb(255, 255, 255);"/>
    <path opacity="1.000000" stroke="none" d="M 914.03 365.633 C 915.839 365.128 917.716 364.235 918.243 366.218 C 918.936 368.828 918.626 372.346 916.279 373.398 C 908.261 376.994 899.939 379.917 891.693 382.991 C 891.098 383.212 889.962 382.815 889.458 382.319 C 883.58 376.522 877.276 371.126 871.866 364.51 C 874.615 361.683 877.931 360.447 880.762 358.523 C 881.854 357.78 882.961 357.915 883.957 358.799 C 884.206 359.019 884.538 359.201 884.68 359.478 C 891.792 373.299 902.55 370.268 914.03 365.633 Z" style="stroke-width: 1; fill: rgb(255, 255, 255);"/>
    <path opacity="1.000000" stroke="none" d="M 881.922 348.761 C 882.512 345.358 880.406 342.523 881.454 339.154 C 890.521 338.046 899.539 340.103 908.609 340.272 C 910.26 340.302 911.923 340.931 913.548 340.819 C 917.871 340.523 918.397 343.267 918.578 346.535 C 918.784 350.247 916.238 350.549 913.627 350.484 C 904.44 350.254 895.416 352.033 886.294 352.555 C 884 352.686 881.257 353.025 881.922 348.761 Z" style="stroke-width: 1; fill: rgb(255, 255, 255);"/>
    <path opacity="1.000000" stroke="none" d="M 527.935 169.041 C 519.416 164.18 515.063 156.448 516.377 148.965 C 518.093 139.202 523.67 133.285 532.564 131.795 C 540.813 130.414 548.571 133.758 552.778 140.509 C 557.18 147.572 556.725 156.084 551.582 162.913 C 546.868 169.172 538.389 172.046 530.66 169.99 C 529.859 169.777 529.08 169.478 527.935 169.041 M 532.895 142.172 C 528.464 144.161 526.063 147.565 526.812 152.413 C 527.416 156.321 530.056 158.913 533.989 159.751 C 537.659 160.534 540.964 159.656 543.251 156.483 C 545.455 153.424 545.878 150.002 544.032 146.669 C 541.787 142.614 538.259 140.903 532.895 142.172 Z" style="stroke-width: 1; fill: rgb(255, 255, 255);"/>
    <path opacity="1.000000" stroke="none" d="M 532.409 253.35 C 534.285 256.984 534.397 260.271 531.307 262.6 C 528.928 264.393 525.903 264.41 523.492 262.425 C 520.53 259.987 520.058 256.828 522.253 253.614 C 524.498 250.327 527.875 250.199 532.409 253.35 Z" style="stroke-width: 1; fill: rgb(255, 255, 255);"/>
    <path opacity="1.000000" stroke="none" d="M 644.925 351.306 C 643.558 347.552 643.175 344.291 647.582 343.056 C 649.988 342.381 652.21 343.149 653.458 345.539 C 654.776 348.064 654.236 350.41 652.157 352.22 C 649.737 354.327 647.335 353.845 644.925 351.306 Z" style="stroke-width: 1; fill: rgb(255, 255, 255);"/>
    <path opacity="1.000000" stroke="none" d="M 531.96 351.828 C 529.171 354.07 526.769 353.964 524.613 351.622 C 522.856 349.714 522.49 347.536 523.861 345.231 C 525.288 342.832 527.569 342.531 529.957 343.118 C 533.512 343.991 534.309 347.128 531.96 351.828 Z" style="stroke-width: 1; fill: rgb(255, 255, 255);"/>
    <path opacity="1.000000" stroke="none" d="M 353.958 216.424 C 352.339 211.065 352.665 205.867 353.241 200.797 C 353.925 194.779 359.675 190.161 365.758 189.883 C 372.538 189.573 377.948 193.281 379.771 199.489 C 380.005 200.285 380.309 201.071 380.449 201.885 C 382.842 215.807 381.615 217.338 367.761 217.214 C 363.286 217.173 358.774 217.744 353.958 216.424 Z" style="stroke-width: 1; fill: rgb(255, 255, 255);"/>
    <path opacity="1.000000" stroke="none" d="M 358.844 236.707 C 359.914 232.246 362.557 230.115 366.723 229.915 C 370.238 229.746 372.77 231.421 374.515 234.376 C 376.623 237.945 375.696 241.324 373.103 243.988 C 370.83 246.323 370.705 248.351 372.064 251.085 C 372.917 252.801 374.026 254.619 373.36 257.24 C 369.065 257.878 364.72 257.805 360.54 257.27 C 359.664 255.235 360.642 253.9 361.295 252.631 C 363.064 249.194 363.384 246.148 360.232 243.192 C 358.566 241.63 358.569 239.288 358.844 236.707 Z" style="stroke-width: 1; fill: rgb(255, 255, 255);"/>
  </g>
</svg>